<?xml version="1.0" encoding="UTF-8"?>
<svg xmlns="http://www.w3.org/2000/svg" viewBox="0 0 100 100">
  <defs>
    <linearGradient id="qc-g" x1="0" y1="0" x2="1" y2="1">
      <stop offset="0%" stop-color="#B48CFF"/>
      <stop offset="55%" stop-color="#7C5CFF"/>
      <stop offset="100%" stop-color="#552EF0"/>
    </linearGradient>
    <radialGradient id="qc-spark" cx="0.5" cy="0.5" r="0.5">
      <stop offset="0%" stop-color="#F4CF87"/>
      <stop offset="60%" stop-color="#E8B45A"/>
      <stop offset="100%" stop-color="#E8B45A" stop-opacity="0"/>
    </radialGradient>
  </defs>
  <rect width="100" height="100" rx="22" fill="#0A0D16"/>
  <g transform="translate(6.41, 6.41)">
    <path fill="url(#qc-g)" d="M17.49,63.75c-4.32-5.58-6.9-12.57-6.9-20.16,0-18.19,14.8-33,33-33s33,14.8,33,33c0,2.39-.26,4.72-.74,6.96l6.96,12.05c2.8-5.75,4.37-12.2,4.37-19.02C87.18,19.55,67.62,0,43.59,0S0,19.55,0,43.59s19.55,43.59,43.59,43.59c4.24,0,8.33-.61,12.21-1.74l-5.51-9.54c-2.17.45-4.41.68-6.7.68-6.69,0-12.93-2.01-18.13-5.45l18.04-31.25,27.3,47.29h12.23L43.5,18.7l-26.01,45.04Z"/>
  </g>
  <circle cx="50" cy="9" r="7" fill="url(#qc-spark)"/>
</svg>
