<?xml version="1.0" encoding="utf-8"?>
<svg
  width="82"
  height="96"
  viewBox="0 0 82 96"
  fill="none"
  xmlns="http://www.w3.org/2000/svg"
>
  <path
    d="M53.4228 2.634L47.4228 4.922C46.6278 5.226 45.4878 5.042 45.1428 4.554L42.3078 0.522C41.8278 -0.174 39.9828 -0.174 39.5028 0.522L36.6528 4.546C36.3078 5.042 35.1828 5.226 34.3878 4.914L28.3878 2.626C27.1878 2.178 25.5978 2.81 26.0928 3.554L31.1478 12.874C35.6478 11.0188 46.1478 11.0188 50.6478 12.874L55.7028 3.554C56.1978 2.81 54.6078 2.178 53.4228 2.634Z"
    fill="#fff"
  />
  <path
    d="M17.1133 73.9716C13.0911 68.7231 10.6889 62.1484 10.6889 55.0094C10.6889 37.9002 24.4688 23.9702 41.4144 23.9702C58.36 23.9702 72.1399 37.8908 72.1399 55.0094C72.1399 57.2574 71.8978 59.449 71.4509 61.5559L77.9313 72.8899C80.5383 67.4815 82 61.4148 82 55C82 32.3884 63.7974 14 41.4144 14C19.0313 14 0.828857 32.3884 0.828857 55C0.828857 77.6116 19.0313 96 41.4144 96C45.3621 96 49.1703 95.4262 52.7829 94.3634L47.6527 85.3902C45.6323 85.8135 43.5466 86.0298 41.4144 86.0298C35.1855 86.0298 29.3756 84.1393 24.534 80.9036L41.3306 51.5104L66.749 95.9906H78.136L41.3306 31.5795L17.1133 73.9433V73.9716Z"
    fill="#fff"
  />
  <path
    d="M10.2418 14.1223H0V95.9529H10.2418V14.1223Z"
    fill="#fff"
  />
</svg>

